<svg xmlns="http://www.w3.org/2000/svg" width="24" height="24" viewBox="0 0 24 24" fill="none">
    <g clip-path="url(#clip0_0_135)">
        <path
            d="M6.35 15.3498L4.25 13.1998C5.28333 12.1665 6.46667 11.3748 7.8 10.8248C9.13333 10.2748 10.5333 9.99982 12 9.99982C13.4667 9.99982 14.871 10.2792 16.213 10.8378C17.555 11.3965 18.734 12.2005 19.75 13.2498L17.65 15.3498C16.9 14.5998 16.0373 14.0205 15.062 13.6118C14.0867 13.2032 13.066 12.9992 12 12.9998C10.9333 12.9998 9.91233 13.2042 8.937 13.6128C7.96167 14.0215 7.09933 14.6005 6.35 15.3498ZM2.1 11.0998L0 8.99982C1.58333 7.38315 3.41267 6.14548 5.488 5.28682C7.56333 4.42815 9.734 3.99915 12 3.99982C14.2667 3.99982 16.4377 4.42915 18.513 5.28782C20.5883 6.14648 22.4173 7.38382 24 8.99982L21.9 11.0998C20.5833 9.78315 19.0707 8.77048 17.362 8.06182C15.6533 7.35315 13.866 6.99915 12 6.99982C10.1333 6.99982 8.34567 7.35415 6.637 8.06282C4.92833 8.77148 3.416 9.78382 2.1 11.0998ZM12 20.9998L8.475 17.4498C8.94167 16.9832 9.47933 16.6248 10.088 16.3748C10.6967 16.1248 11.334 15.9998 12 15.9998C12.6667 15.9998 13.3043 16.1248 13.913 16.3748C14.5217 16.6248 15.059 16.9832 15.525 17.4498L12 20.9998Z"
            fill="#3EC7C7" />
    </g>
    <defs>
        <clipPath id="clip0_0_135">
            <rect width="24" height="24" fill="white" />
        </clipPath>
    </defs>
</svg>